<?xml version="1.0" standalone="no"?>
<!DOCTYPE svg PUBLIC "-//W3C//DTD SVG 20010904//EN"
 "http://www.w3.org/TR/2001/REC-SVG-20010904/DTD/svg10.dtd">
<svg version="1.0" xmlns="http://www.w3.org/2000/svg"
 width="1003.000000pt" height="635.000000pt" viewBox="0 0 1003.000000 635.000000"
 preserveAspectRatio="xMidYMid meet">
<metadata>
Created by potrace 1.15, written by Peter Selinger 2001-2017
</metadata>
<g transform="translate(0.000000,635.000000) scale(0.100000,-0.100000)"
fill="#000000" stroke="none">
<path d="M120 6182 c0 -5 39 -13 88 -17 114 -9 264 -55 377 -116 98 -52 223
-164 302 -269 23 -30 678 -1160 1456 -2511 1535 -2665 1499 -2608 1683 -2775
180 -163 343 -250 600 -319 128 -35 354 -58 354 -37 0 5 -48 13 -112 17 -208
14 -486 106 -651 217 -51 34 -132 98 -181 142 -184 167 -148 110 -1683 2775
-778 1351 -1433 2481 -1456 2511 -23 30 -79 92 -126 138 -102 99 -215 164
-366 210 -105 32 -285 54 -285 34z"/>
<path d="M9695 6183 c-74 -7 -239 -64 -320 -110 -44 -25 -114 -75 -156 -110
-75 -63 -209 -219 -209 -243 0 -7 -631 -1104 -1402 -2439 -1003 -1737 -1425
-2459 -1486 -2541 -220 -300 -437 -448 -798 -545 -78 -21 -160 -35 -228 -40
-60 -4 -106 -11 -106 -17 0 -21 215 3 343 37 362 97 579 245 799 545 60 82
479 798 1469 2510 761 1317 1398 2423 1416 2457 70 136 212 277 368 366 101
57 253 104 368 113 48 4 87 11 87 15 0 9 -66 9 -145 2z"/>
</g>
</svg>
